# xmcd
#
# Track frame offsets:
# 150
# 12238
# 24049
# 33884
# 45809
# 59068
# 76843
# 85575
# 96312
# 114697
# 127600
# 141293
#
# Disc length: 2052 seconds
#
#
# Revision: 1
# Processed by: cddbd v1.5.1PL0 Copyright (c) Steve Scherf et al.
# Submitted via: HACP 1.20
#
DISCID=8308020c
DTITLE=Johnny Cash - Ring of Fire - The Best of Johnny Cash
DYEAR=1963
DGENRE=Country
TTITLE0=Ring of Fire
TTITLE1=I'd Still be There
TTITLE2=What Do I Care
TTITLE3=I Still Miss Someone
TTITLE4=Forty Shades of Green
TTITLE5=Were You There (When They Crucified My Lord?)
TTITLE6=The Rebel - Johnny Yuma
TTITLE7=Bonanza!
TTITLE8=The Big Battle
TTITLE9=Remember the Alamo
TTITLE10=Tennessee Flat-Top Box
TTITLE11=(There'll Be) Peace in the Valley (For Me)
EXTD=YEAR: 1963
EXTT0=
EXTT1=
EXTT2=
EXTT3=
EXTT4=
EXTT5=
EXTT6=
EXTT7=
EXTT8=
EXTT9=
EXTT10=
EXTT11=
PLAYORDER=
